PathFileType	4	(X/Y/Z)	C:\Users\italobelli\Desktop\GitHub\PTbot_officialCBL\Personal_Results\FLX21_noisy1.trc
DataRate	CameraRate	NumFrames	NumMarkers	Units	OrigDataRate	OrigDataStartFrame	OrigNumFrames
107.000000	107.000000	21	9	m	107.000000	282	750
Frame#	Time		gu		centelbow		EpL		centpxt8		centijc7		ij		ts		aa		ai
			X1	Y1	Z1	X2	Y2	Z2	X3	Y3	Z3	X4	Y4	Z4	X5	Y5	Z5	X6	Y6	Z6	X7	Y7	Z7	X8	Y8	Z8	X9	Y9	Z9

282	2.6262	-0.09531	0.059384	0.099185	0.007867	0.27706	0.16066	-0.020106	0.28884	0.14989	-0.046816	-0.15316	-0.008669	-0.046816	0.031938	-0.008669	0	0	0	-0.13282	-0.025572	0.06216	-0.12629	0.082965	0.11098	-0.094626	-0.06654	0.16102
283	2.6355	-0.095263	0.059392	0.099153	0.0079297	0.27677	0.16081	-0.020041	0.28857	0.15003	-0.046816	-0.15316	-0.008669	-0.046816	0.031938	-0.008669	0	0	0	-0.13283	-0.025515	0.062133	-0.12628	0.083015	0.11095	-0.094652	-0.066495	0.161
284	2.6449	-0.095214	0.059402	0.099123	0.0080122	0.27647	0.16098	-0.019956	0.28829	0.15019	-0.046816	-0.15316	-0.008669	-0.046816	0.031938	-0.008669	0	0	0	-0.13286	-0.025455	0.062106	-0.12627	0.083066	0.11093	-0.094688	-0.066452	0.16097
285	2.6542	-0.095163	0.059412	0.099097	0.0081145	0.27615	0.16118	-0.019849	0.28801	0.15037	-0.046816	-0.15316	-0.008669	-0.046816	0.031938	-0.008669	0	0	0	-0.13289	-0.025393	0.062077	-0.12626	0.083119	0.11091	-0.094734	-0.066412	0.16094
286	2.6636	-0.09511	0.059424	0.099074	0.0082364	0.27582	0.16141	-0.019722	0.28771	0.15058	-0.046816	-0.15316	-0.008669	-0.046816	0.031938	-0.008669	0	0	0	-0.13292	-0.025328	0.062047	-0.12625	0.083172	0.11089	-0.094789	-0.066376	0.1609
287	2.6729	-0.095055	0.059435	0.099055	0.0083779	0.27548	0.16166	-0.019574	0.2874	0.1508	-0.046816	-0.15316	-0.008669	-0.046816	0.031938	-0.008669	0	0	0	-0.13296	-0.02526	0.062016	-0.12623	0.083226	0.11088	-0.094854	-0.066342	0.16086
288	2.6822	-0.094997	0.059448	0.099038	0.0085389	0.27512	0.16193	-0.019405	0.28709	0.15105	-0.046816	-0.15316	-0.008669	-0.046816	0.031938	-0.008669	0	0	0	-0.13301	-0.02519	0.061985	-0.12621	0.083281	0.11087	-0.094927	-0.066312	0.16082
289	2.6916	-0.094938	0.059461	0.099025	0.0087192	0.27476	0.16222	-0.019215	0.28676	0.15131	-0.046816	-0.15316	-0.008669	-0.046816	0.031938	-0.008669	0	0	0	-0.13306	-0.025117	0.061952	-0.12619	0.083337	0.11086	-0.095009	-0.066285	0.16078
290	2.7009	-0.094876	0.059475	0.099015	0.0089189	0.27438	0.16253	-0.019004	0.28642	0.1516	-0.046816	-0.15316	-0.008669	-0.046816	0.031938	-0.008669	0	0	0	-0.13311	-0.025041	0.061919	-0.12616	0.083393	0.11085	-0.0951	-0.066261	0.16074
291	2.7103	-0.094813	0.059489	0.099008	0.0091377	0.27399	0.16287	-0.018772	0.28608	0.1519	-0.046816	-0.15316	-0.008669	-0.046816	0.031938	-0.008669	0	0	0	-0.13317	-0.024964	0.061886	-0.12614	0.08345	0.11085	-0.0952	-0.06624	0.16069
292	2.7196	-0.094748	0.059504	0.099005	0.0093757	0.27358	0.16322	-0.01852	0.28572	0.15223	-0.046816	-0.15316	-0.008669	-0.046816	0.031938	-0.008669	0	0	0	-0.13323	-0.024884	0.061851	-0.12611	0.083507	0.11085	-0.095307	-0.066223	0.16064
293	2.729	-0.094681	0.05952	0.099005	0.0096327	0.27317	0.1636	-0.018247	0.28536	0.15257	-0.046816	-0.15316	-0.008669	-0.046816	0.031938	-0.008669	0	0	0	-0.1333	-0.024801	0.061816	-0.12607	0.083565	0.11085	-0.095423	-0.066209	0.16059
294	2.7383	-0.094613	0.059536	0.099008	0.0099086	0.27274	0.16399	-0.017954	0.28498	0.15293	-0.046816	-0.15316	-0.008669	-0.046816	0.031938	-0.008669	0	0	0	-0.13338	-0.024717	0.061781	-0.12604	0.083622	0.11085	-0.095546	-0.066199	0.16054
295	2.7477	-0.094543	0.059552	0.099014	0.010203	0.2723	0.1644	-0.017639	0.2846	0.1533	-0.046816	-0.15316	-0.008669	-0.046816	0.031938	-0.008669	0	0	0	-0.13345	-0.024631	0.061745	-0.126	0.08368	0.11086	-0.095678	-0.066191	0.16048
296	2.757	-0.094471	0.059569	0.099024	0.010517	0.27186	0.16482	-0.017305	0.28421	0.1537	-0.046816	-0.15316	-0.008669	-0.046816	0.031938	-0.008669	0	0	0	-0.13353	-0.024543	0.061709	-0.12596	0.083738	0.11087	-0.095816	-0.066188	0.16043
297	2.7664	-0.094398	0.059586	0.099037	0.010849	0.2714	0.16527	-0.016949	0.28381	0.15411	-0.046816	-0.15316	-0.008669	-0.046816	0.031938	-0.008669	0	0	0	-0.13362	-0.024452	0.061673	-0.12591	0.083796	0.11089	-0.095962	-0.066187	0.16037
298	2.7757	-0.094323	0.059604	0.099054	0.0112	0.27093	0.16573	-0.016573	0.28341	0.15453	-0.046816	-0.15316	-0.008669	-0.046816	0.031938	-0.008669	0	0	0	-0.13371	-0.02436	0.061636	-0.12586	0.083854	0.1109	-0.096114	-0.066191	0.16031
299	2.785	-0.094247	0.059621	0.099073	0.011569	0.27045	0.1662	-0.016177	0.28299	0.15497	-0.046816	-0.15316	-0.008669	-0.046816	0.031938	-0.008669	0	0	0	-0.1338	-0.024267	0.061599	-0.12581	0.083912	0.11092	-0.096273	-0.066198	0.16025
300	2.7944	-0.09417	0.059639	0.099096	0.011957	0.26996	0.16669	-0.01576	0.28257	0.15543	-0.046816	-0.15316	-0.008669	-0.046816	0.031938	-0.008669	0	0	0	-0.13389	-0.024171	0.061562	-0.12576	0.083969	0.11094	-0.096439	-0.066208	0.16019
301	2.8037	-0.094092	0.059658	0.099123	0.012363	0.26946	0.16719	-0.015323	0.28214	0.1559	-0.046816	-0.15316	-0.008669	-0.046816	0.031938	-0.008669	0	0	0	-0.13399	-0.024074	0.061526	-0.1257	0.084026	0.11097	-0.096612	-0.066222	0.16012
302	2.8131	-0.094012	0.059676	0.099153	0.012787	0.26895	0.1677	-0.014865	0.28171	0.15639	-0.046816	-0.15316	-0.008669	-0.046816	0.031938	-0.008669	0	0	0	-0.1341	-0.023976	0.061489	-0.12564	0.084083	0.111	-0.09679	-0.06624	0.16006
